{
  "accessors": [
    {
      "bufferView": 2,
      "componentType": 5126,
      "count": 8073,
      "max": [
        86.359001159667969,
        5.1739001274108887,
        51.863800048828125
      ],
      "min": [
        -92.791099548339844,
        -13.842900276184082,
        -47.784099578857422
      ],
      "type": "VEC3"
    },
    {
      "bufferView": 2,
      "byteOffset": 96876,
      "componentType": 5126,
      "count": 8073,
      "max": [
        0.99931061267852783,
        1,
        0.99905359745025635
      ],
      "min": [
        -0.99927783012390137,
        -1,
        -0.99905359745025635
      ],
      "type": "VEC3"
    },
    {
      "bufferView": 3,
      "componentType": 5126,
      "count": 8073,
      "max": [
        0.99990326166152954,
        1,
        0.9998440146446228,
        1
      ],
      "min": [
        -0.99934113025665283,
        -1,
        -0.99995476007461548,
        -1
      ],
      "type": "VEC4"
    },
    {
      "bufferView": 1,
      "componentType": 5126,
      "count": 8073,
      "max": [
        0.99949997663497925,
        0.99260002374649048
      ],
      "min": [
        0.00050000002374872565,
        0.00050000002374872565
      ],
      "type": "VEC2"
    },
    {
      "bufferView": 0,
      "componentType": 5125,
      "count": 33858,
      "max": [
        8072
      ],
      "min": [
        0
      ],
      "type": "SCALAR"
    },
    {
      "bufferView": 2,
      "byteOffset": 193752,
      "componentType": 5126,
      "count": 8073,
      "max": [
        86.014396667480469,
        4.7939000129699707,
        51.533100128173828
      ],
      "min": [
        -92.411697387695312,
        -13.517800331115723,
        -47.405601501464844
      ],
      "type": "VEC3"
    },
    {
      "bufferView": 2,
      "byteOffset": 290628,
      "componentType": 5126,
      "count": 8073,
      "max": [
        0.9995768666267395,
        1,
        0.99905359745025635
      ],
      "min": [
        -0.99994790554046631,
        -1,
        -0.99991810321807861
      ],
      "type": "VEC3"
    },
    {
      "bufferView": 3,
      "byteOffset": 129168,
      "componentType": 5126,
      "count": 8073,
      "max": [
        0.99999988079071045,
        1,
        0.99987822771072388,
        1
      ],
      "min": [
        -1,
        -1,
        -0.99994802474975586,
        -1
      ],
      "type": "VEC4"
    },
    {
      "bufferView": 1,
      "byteOffset": 64584,
      "componentType": 5126,
      "count": 8073,
      "max": [
        0.99949997663497925,
        0.99260002374649048
      ],
      "min": [
        0.00050000002374872565,
        0.00050000002374872565
      ],
      "type": "VEC2"
    },
    {
      "bufferView": 0,
      "byteOffset": 135432,
      "componentType": 5125,
      "count": 33858,
      "max": [
        8072
      ],
      "min": [
        0
      ],
      "type": "SCALAR"
    }
  ],
  "asset": {
    "extras": {
      "author": "atalik_ST (https://sketchfab.com/atalik_ST)",
      "license": "CC-BY-4.0 (http://creativecommons.org/licenses/by/4.0/)",
      "source": "https://sketchfab.com/3d-models/wasteland-sword-f9c9883994a94ef0816199a87b761b72",
      "title": "Wasteland Sword"
    },
    "generator": "Sketchfab-7.16.0",
    "version": "2.0"
  },
  "bufferViews": [
    {
      "buffer": 0,
      "byteLength": 270864,
      "byteOffset": 0,
      "name": "floatBufferViews",
      "target": 34963
    },
    {
      "buffer": 0,
      "byteLength": 129168,
      "byteOffset": 270864,
      "byteStride": 8,
      "name": "floatBufferViews",
      "target": 34962
    },
    {
      "buffer": 0,
      "byteLength": 387504,
      "byteOffset": 400032,
      "byteStride": 12,
      "name": "floatBufferViews",
      "target": 34962
    },
    {
      "buffer": 0,
      "byteLength": 258336,
      "byteOffset": 787536,
      "byteStride": 16,
      "name": "floatBufferViews",
      "target": 34962
    }
  ],
  "buffers": [
    {
      "byteLength": 1045872,
      "uri": "scene.bin"
    }
  ],
  "images": [
    {
      "uri": "textures/Kontur_emissive.png"
    },
    {
      "uri": "textures/Osnova_baseColor.png"
    }
  ],
  "materials": [
    {
      "alphaMode": "BLEND",
      "doubleSided": true,
      "emissiveFactor": [
        0.29999999999999999,
        0.29999999999999999,
        0.29999999999999999
      ],
      "emissiveTexture": {
        "index": 0,
        "texCoord": 0
      },
      "name": "Kontur",
      "pbrMetallicRoughness": {
        "baseColorFactor": [
          0,
          0,
          0,
          0.69999999999999996
        ],
        "metallicFactor": 0,
        "roughnessFactor": 0.59999999999999998
      }
    },
    {
      "doubleSided": true,
      "emissiveFactor": [
        1,
        1,
        1
      ],
      "emissiveTexture": {
        "index": 1,
        "texCoord": 0
      },
      "name": "Osnova",
      "pbrMetallicRoughness": {
        "baseColorFactor": [
          1,
          1,
          1,
          1
        ],
        "baseColorTexture": {
          "index": 1,
          "texCoord": 0
        },
        "metallicFactor": 0,
        "roughnessFactor": 0.59999999999999998
      }
    }
  ],
  "meshes": [
    {
      "primitives": [
        {
          "attributes": {
            "NORMAL": 1,
            "POSITION": 0,
            "TANGENT": 2,
            "TEXCOORD_0": 3
          },
          "indices": 4,
          "material": 0,
          "mode": 4
        }
      ]
    },
    {
      "primitives": [
        {
          "attributes": {
            "NORMAL": 6,
            "POSITION": 5,
            "TANGENT": 7,
            "TEXCOORD_0": 8
          },
          "indices": 9,
          "material": 1,
          "mode": 4
        }
      ]
    }
  ],
  "nodes": [
    {
      "children": [
        1
      ],
      "name": "RootNode (gltf orientation matrix)",
      "rotation": [
        -0.70710678118654746,
        -0,
        -0,
        0.70710678118654757
      ]
    },
    {
      "children": [
        2
      ],
      "name": "RootNode (model correction matrix)"
    },
    {
      "children": [
        3,
        4
      ],
      "name": "Sword.obj.cleaner.materialmerger.gles"
    },
    {
      "mesh": 0,
      "name": ""
    },
    {
      "mesh": 1,
      "name": ""
    }
  ],
  "samplers": [
    {
      "magFilter": 9729,
      "minFilter": 9987,
      "wrapS": 10497,
      "wrapT": 10497
    }
  ],
  "scene": 0,
  "scenes": [
    {
      "name": "OSG_Scene",
      "nodes": [
        0
      ]
    }
  ],
  "textures": [
    {
      "sampler": 0,
      "source": 0
    },
    {
      "sampler": 0,
      "source": 1
    }
  ]
}

